<mxfile host="65bd71144e">
    <diagram id="HIP3nbAZw_EuaXWnEj3U" name="Page-1">
        <mxGraphModel dx="702" dy="477" grid="1" gridSize="10" guides="1" tooltips="1" connect="1" arrows="1" fold="1" page="1" pageScale="1" pageWidth="850" pageHeight="1100" math="0" shadow="0">
            <root>
                <mxCell id="0"/>
                <mxCell id="1" parent="0"/>
                <mxCell id="7" value="http://ics2o.mths.ca" style="swimlane;whiteSpace=wrap;html=1;" parent="1" vertex="1">
                    <mxGeometry x="40" y="40" width="760" height="480" as="geometry"/>
                </mxCell>
                <mxCell id="8" value="Volume of a Sphere, With Query String" style="whiteSpace=wrap;html=1;fillColor=#0050ef;fontColor=#ffffff;strokeColor=#001DBC;fontSize=35;" vertex="1" parent="7">
                    <mxGeometry y="20" width="760" height="50" as="geometry"/>
                </mxCell>
                <mxCell id="9" value="Formula" style="text;html=1;align=center;verticalAlign=middle;resizable=0;points=[];autosize=1;strokeColor=none;fillColor=none;fontSize=35;" vertex="1" parent="7">
                    <mxGeometry y="110" width="150" height="60" as="geometry"/>
                </mxCell>
                <mxCell id="10" value="V = 4 / 3&amp;nbsp;&lt;b style=&quot;font-family: sans-serif; text-align: start;&quot;&gt;&lt;span style=&quot;font-family: &amp;quot;Nimbus Roman No9 L&amp;quot;, &amp;quot;Times New Roman&amp;quot;, Times, serif; line-height: 1; font-variant-numeric: lining-nums tabular-nums; font-kerning: none; font-style: italic;&quot; class=&quot;texhtml mvar&quot;&gt;&lt;font color=&quot;#ffffff&quot; style=&quot;font-size: 34px;&quot;&gt;Ï€ r&lt;sup&gt;3&lt;/sup&gt;&lt;/font&gt;&lt;/span&gt;&lt;/b&gt;" style="text;html=1;align=center;verticalAlign=middle;resizable=0;points=[];autosize=1;strokeColor=none;fillColor=none;fontSize=35;" vertex="1" parent="7">
                    <mxGeometry y="200" width="220" height="60" as="geometry"/>
                </mxCell>
                <mxCell id="12" value="" style="endArrow=none;html=1;fontSize=34;fontColor=#FFFFFF;" edge="1" parent="7">
                    <mxGeometry width="50" height="50" relative="1" as="geometry">
                        <mxPoint x="230" y="360" as="sourcePoint"/>
                        <mxPoint x="390" y="360" as="targetPoint"/>
                    </mxGeometry>
                </mxCell>
                <mxCell id="11" value="The radius is:&amp;nbsp;" style="text;html=1;align=center;verticalAlign=middle;resizable=0;points=[];autosize=1;strokeColor=none;fillColor=none;fontSize=34;fontColor=#FFFFFF;" vertex="1" parent="7">
                    <mxGeometry y="325" width="240" height="50" as="geometry"/>
                </mxCell>
                <mxCell id="13" value="The volume is:&amp;nbsp;" style="text;html=1;align=center;verticalAlign=middle;resizable=0;points=[];autosize=1;strokeColor=none;fillColor=none;fontSize=34;fontColor=#FFFFFF;" vertex="1" parent="7">
                    <mxGeometry y="385" width="250" height="50" as="geometry"/>
                </mxCell>
                <mxCell id="14" value="" style="endArrow=none;html=1;fontSize=34;fontColor=#FFFFFF;" edge="1" parent="7">
                    <mxGeometry width="50" height="50" relative="1" as="geometry">
                        <mxPoint x="240" y="420" as="sourcePoint"/>
                        <mxPoint x="400" y="420" as="targetPoint"/>
                    </mxGeometry>
                </mxCell>
                <mxCell id="15" value="" style="shape=image;verticalLabelPosition=bottom;labelBackgroundColor=default;verticalAlign=top;aspect=fixed;imageAspect=0;image=data:image/jpeg,/9j/4AAQSkZJRgABAQAAAQABAAD/2wCEAAkGBxETEBURExAWFRUXFRUbFxYYGBYXGBcVGxgWFh0YGBkbKCggGRooGxYTIjIhJyksLi4uGB8zODMsNygtLisBCgoKDg0OGxAQGy4mICUtNS8tKy8tNy0yLTAtLS0tLy8tLS0vLTYuLy0tLjAvNS0vLTAtLS8yLS8tLy0vLS81MP/AABEIAKgBLAMBIgACEQEDEQH/xAAbAAEAAgMBAQAAAAAAAAAAAAAAAwUCBAYHAf/EAEgQAAIBAwIDBAMLCQcEAwEAAAECAwAEERIhBRMxBiJBUWFxkQcUFTJSU4GSoaLRFiMzQlRyc7GzNGKCk7LB8CQlY9KDw9NV/8QAGwEBAAIDAQEAAAAAAAAAAAAAAAMFAQIEBgf/xAAxEQACAQIEBAMIAQUAAAAAAAAAAQIDEQQSITEFQVFhobHhEyIycYHB0fCRFBUjQvH/2gAMAwEAAhEDEQA/APcaUpQClKUApXmll2vu17TzcNmf/p3jHITQBhhEsuQwGTkCUHJxnbwxW1F27aKK6uJ8uDxF7WzhAVSxXSg7+NlLrIxZs49OwoD0GlUPDu0LGWW3uIRDcRx80Ir81JIemuNyqk4bukFQQcdQQTh2D7TfCNil3yeVqZxo1a8aWK/GwM9PKgOhpXFcK7e86CacW2BHxFLTGvOVaWGPmnbY/nc6d+mM75qwu+2EcfFouFtGdUsBkEmrbVlsIFxucI5znwA3zQHS0rl+znbOO8vryzSMgWrKvM1Z1tllcacd3SykdTn0VF2Z7WzXk06JZhY4LqWB5DMM9w/GCac7jG2fHrtQHW0rW4lfRwQyTytpjjRnc7nCqCTsNycDpXNcI7aNILeWW15NvdkLby8wOdbZ0JMmkcsuAcYLjOxIJGQOupXFwdq7u4v7yztreD/pDEGaaWRTJrGcqERtIGD5+Hnt2Mz4UsATgE4HU4HQemgM6V477n3afi3EGF4k4cLepHPZhYljjs3UHmqx7+pW1eJJ0+PSuv7Rds5oeK2/DILVJZJoWkDPK0SjHNOnZH8IW3x1IoDs6VxnGO36QpZMLZmN3c8gqWCmF1flSBsBgzK+RgHBwd6uIu0ANzeW/KP/AEsULltXx+YsrYAxtjl9cnOrwxuBd0rl+w/aibiEEdz7zEMMivhucHbUrlCNOkbZVt/QPOqrsp7oj3UUVxLZcmCWbkrIswlKTE6VEqlEKhmwARq3YZxQHe0rk73tbKOJtw2GzErrbibW0wjGksEIxpPiy+PifKurXpvQH2leXWVxPece4hYzXlxHHFGjQpBIYdIxHk5Xcn84p3Pj5bV1F/2laK6ThttELm5EHMfmS8oLGuFBZwrEyMcbafHJIoDqaVxfH/dASDhwvkty+JhDJE78popAzI6uQG3VlxsDnqDV5wTjTSyS280HJniCMyaxIrRvqCvG+BqXKON1BBXcdMgXFK4Xgnul28/DLniRjMa27OpjLAs2NOjfoC+tR44ORk4qbiHb0R8EXi4t86kjIh14wzOI8a8dASTnG+PCgO0pVRa8c13TW3LxptYZ9Wc55jyppxjbHK6531dNq0+wPar4Ss/fQh5WZHXTq17KeucDz6YoDo6Vzx7XQfCnwXg80w8zVtpz10eerSNXqroaAUpSgFKUoBSlKAUpSgPGPdcuBY8c4bxI/FKlXA66UbDn0nRP92tHjds0XCOByOdRe9imkY43aZmnyfoY+yvUe3PY234nCkM7Omh9atGVDZ0lSO8D3Tn7BW1x7svbXdl7xmUmLSoUg99CowrKxz3h6c53zkEigKnjThuK4XrFwy5LkDpzZYuWD6+TMcf3a0vcNH/Y7f8Aen/rSV0nCuzqQibVLJNJPgSTSFOYyqmhV7iqoVRqwAOrMdyTWh2V7He8EjiivrloY9WIXFuUOosTlhGH+MxPxvs2oDznsJk8NkHXPaC3B9IE1ox/ln6Ky90Kxnl7QNLbEme0sI7iJQCdbRTgmMhd21K7jA3JIFd/w3sFbw3JmSaXl++GuBbkpyhcMpQyZxrOAThS2BVpF2bhXiDcRDPzmgEJXI5ejUr5AxnVlR449FAcN7l/DJbW8WGbPNfhkcsuRhuZJd3UhDf3gH0n92pvckvkFxxOA69bcSumH5uQppBA3kA0A/3Sc+iu6PBY/fovtTCT3uYCuRoKaxICRjOoHODn9Y1U8H7He9ppZIb64VJrh55IsW7IzuQWGWjLhSABswOPHO9AZ+6WhPB70D9nkP0AZP2A1y9hKrcD4RGN2kn4eqY3OY5Vlc+jCRSk+qvSpolZSjKGVgQwO4IIwQR4jFc12d7D29o8ZSWZ0h5vIikZGSAynLlMKGJwWALMxAZvM5A5Ps7xWKLtLxRH15lNqqBI5JO9oUZYoCEG43bAr1MmqbhnZqGC9ub1WcyXPL1qSuhRGukaQBnfxyTV1QHg8t+llcW/aGx5iWF7KyXUDgZU63Vm0qSMZSR1wdiMZw2mug7UNKe1dqYI45JVsG0iR2jQEm5GosqsejdAN8+FX83uaW7uVa4ma0M5n95EryhMc53xq5eWJ0A4yaubjspE3E4+J8xxLHCYtA06GU69ztnPf8D4CgPPPdFtFsxweOWYHHEDLNKwCgu0qzSPj9VdUjnHgMda6LgXFILi/wCLyQSLInvazGpdwTy7k7HxGCKvu1XZRb2azlaUp71uFmwFDa8EHSTnu7qu++2fWNyDgEa3F1ca3LXSRIw2wixq6jRtnfWSc5oDk/cLvkbg8EI16o+bqzHIq96eYjS5AV9uuknHQ4rhux0c0MFnrlzYNxdkMIXDCQH8yzyZ3QSoh04A23JyAPV+ynZI2CRwx31w8EerTC4tyveLMcsIxJ8ZifjfZtWqvYCAcOk4cJpdDymQSZXmI/MWQFSAAMMvl4mgKKS+SLtY5fX3+Hoi6Y5JO800eM6AdK7HvHAHia9MrmL7seHvjfx3s8ExhEJKCBlKBtXxZEYZJAP0V0kCFVVSxYgAFmxliBjUdIAyeuwA9AoDxqz4r737WcQk97XFwTAiBIEDsMranLZICr3epP8AOruwGnthcZ/X4eNP1oen1W+2uu4f2Tgi4jccRV3MtwiqykroVVCDujGc/m16k0472UiubiK6EssFxErKs0JQMY2BBRg6srL3mI22JyKA807fxB+C8RlXdZOKs0eOh0tHbkjzBeOQ59Ndd2OkmXiXEUu5OZcoltolCctDbFXdRGmTgLI0mSSck1ccX7GW83D04cGeKJOXpKFdQKHIJLAgkncnG5Nbk/Z6Nr4X2thJ73aBlGNLxltYz45BzgjzoDwbsB2Zu5IbMQgtbXtwrXfdJCC0ldxluiqynAB6sv0V0vamQnsj16XDr9C3kqj7AK9V7KdnorC0S0hZ2RC5BkKlu8xc5KgDqx8K0Z+xVs/D5OHOZDDI8jZ1AOheUzd0gY7rnbIPTfNAQcPX/uVyfk8Osh7ZLw/7VUe4MP8AssX8Sb/Wa6js92cW1EhM0k8kugPLJp1FEXQiAIAAqjPhuWYnrVf2W7Fe8USKG/uTChY8phblTqyTluXr6nOzUB5hfXiLxuz4kGUvNxK5hbDglYV5VnHlc5AKiVs4/W9Ve9VyF/7ndnJZwWil4xbvG6Spo5pkTPeclcMWLMTt13rr6AUpSgFKUoBSlKAUpSgFKVT8T4+kbGONebKOqg4VDjI5j7hOo2ALYIOkjetJ1Iwjmk7IyouTsi4quveO20RKtMusdUXMkg9aIC32VzV1LNL+mlJHzaZjjHXrg6n266iVOPiioY4lRQqqFUdAoAA9QFU1bjdNO1JX7vT98Dtp4KT+J2LuXtWme7bzuPlYjQfSHYN9lRHtW37K310qoaomrn/u1eXT+PU6o4Gl3Lxe16/rWs3rUwkD2uD7BW5B2qs22MvLP/lVohnyDOApPqJrk2qJq6KfE6n+yTD4dTezaPSlYEZByD0Ir7Xl9szQnVDI0RzkhMaSep1RnKEnzxnyIro+GdsQO7dKE/8AMueX/jByYvXll2yWHSrGjjKdTTZnHWwNSmr7rsdbSvisCMg5B6HzFfa6zjFKUoBSla95exRANLIqAnALEAE9cb+o0BsUqs/KGz/aofrr+NPyhs/2qH66/jQFnSqz8obP9qh+uv40/KGz/aofrr+NAWdKrPyhs/2qH66/jT8obP8Aaofrr+NAWdKrPyhs/wBqh+uv40/KGz/aofrr+NAWdKrPyhs/2qH66/jT8obP9qh+uv40BZ0qs/KGz/aofrr+NPyhs/2qH66/jQFnStK14tbyHTHPG7eSupPs61u0ApSlAKUpQClKUApSuZ7S3jylrWJ9AAHOkG5GQCIh6SCCx2IUgDBYMsVetCjBzm9EbRi5OyPnFOMNMTHAxWMEh5h8Z8bFIj4DwMnrC795dCKJUUKqgAZ2Hp3J9ZOTnxqK0ud+UyhHUbKPisowNUfmo2GOq5GeoJ2TXi8bi6uInee3JcvX5lvQpRgtDBqjapGqNq54HQiNqiapWqJq6oG6I2qJqlaomroiSIieoWqZ6hap4ksTb4JxqS0bAy8Oe9F8nzaLPQ+adD6CST6JZXccsayxsGRhkEf8yCDkEHcEEV5U1bvZ/jZtJcsfzDn86PkHpzR6ttQ8Rv1XBtcLiWvcmVuNwKadSmteaPT6V8BzuK+1ZlIKpu0A/OWv8c/0ZauapuP/AKS1/jn+jLQGzy1+SPYKctfkj2CsqVsYMeWvyR7BTlr8kewVlSgMeWvyR7BTlr8kewVlSgMeWvyR7BTlr8kewVVdqeNC0tmlCGSQ92KIdZJMEgehQAzMfBVY+FS9m+INcWdvcOAGlhjdgucAsoYgZ3xvQFhy1+SPYKctfkj2CsqUBjy1+SPYKctfkj2CsqUBrXVhFINLxqw9W49II3B9IrHgtw6yPbSMXKqHjc/GaInThj4sp2z4gg1t1oj+3RfwJ/8AXDWGC8pSlYMilKUApSlAaPGr8wxFlALsQsano0jdM+OkbscdFVj4Vz0EGhAuSx3LMcZZiSWY42yWJP01t8Tl5l0R+rAoH/zOAxyPNYzHg+UrVC9eT41inOr7JbR8/T8lhhIWWY1Ly2WQYbOxyrDZlb5SnwO59YJByCRWrDcsrCKXGo/EcbLJ6P7smP1fHqPELYNUE8KupVgCD1B9v0HODmqiMtLS28jttzRHeSFY2YYyFJGemwzWvZSyMNTqoBCldJJ6jJBz5bb1FMWQGOViY2GFl2yudtEh+wP49Dg4LbcUWlQuScDAzjOPoqdJRj9yaMlltzPjVE1StUTVLAyiNqiapWqJq6IkiInqFqmeoWqeJLEhaoXqZqhepok0TsPc94tlGtGO8YzF6Yc40/4CQP3WQeddlXjdlfm3njuPCNst6Yz3XGPHuliB5ha9jBq7w1TPDXdHm+I4f2NbTZ6o+1Tcf/SWv8c/0ZauapuP/pLX+Of6MtTnAbdKVy/H+K3EfE+H2yOoiuffHMBQFgYYxL3W8NWcfRtWxg6ilc7bX1zLxOWOORfesCIJO53jcsC3LV/kiMxsT1BYD1X8sqqNTMFA8SQB5dTQGdK1PhKD5+L/ADE/GtiKVWGpWDA9CCCD4dRQHI9puG3fNuLvNu0aWsiQh2kUxKyEzPsCC7EKM7YVAPE1se5tz/g22Mhj0e97flBNWQojAOsnqxPgNhiulnhR1KOiup6qwDA+O4Ox3xXy2tkjXRGiou/dVQoydzsNqwCWlaEnGbZSVM6Ag4Iz0PlXyTjlqqcwzoF1ac5/WxnA+jet5QlFZpKyNac41JZIO76LV/wWFRxToxIV1Yjrgg4Ppx0rTl4lbOZYTKjaUYyrn4seMNqI6bHfeuY4RbxpxePEcIVrBhbG3xp97iSMnnbZJ3j0EHT8bbO9aJp7EkoSjpJWO3rRH9ui/gT/AOuGt6tEf26L+BP/AK4aGpeUpSsGRSlKAUpWlxu4MdrPIOqQyN9VCf8AagOf4c+qLm5zzWaTP912LIPoQov+Gs3r5HsiLHpKrhSTkbLgd0Y73TGc49fSo3gByGJYE9DjAHlgAbevOfGvn1WWecpy5u/iW1LRWMHmUNpLDUei5GSPQOtQ++AVyFY74xpKn72NvT0rY0gDAGB5DyrE1podCIJGJyugkY6nTpbbp1J9oqrPNgGyhos7rqYmEeg6cunoxlfMj4tw1RtU1OdtLaGbXNYOx3GkqRlSCTnPQ+WPVUba9vi+nr9lRSQNES0YypJLRek7lo/I+a9D12OdU0UyuoZTkHx+wgjqCDkEHcEV1JW1WxvF8mRNr3+L6Oo9tRktt3V9PeO3qGN/srYaomqaLJkjWd2wcp6gCDn24xUbPuBpO4+j1HFbD1C1TxJIo1mmXGc43xvld/LBxWD1M9a0kYyT0JHUf8wTU0bE0bmvNXqPYq75thAxJJVTGSepMbGIk+vRn6a8rkyMDr5k7H2AY/lXf+5fPqtZR4LcMB6jHE5+8zVY4N6tFfxiKdKMuafmvQ7Gqbj/AOktf45/oy1c1Tcf/SWv8c/0ZasDzpt1xHuiXEkVzw2aKMySCeZI083kgdF1HwTVgsfAAnwrt6+YrYwV/AeFi2t1hDa27zSSHrJM5LySH0s5Y48BgeFfeO2rS27xrDBMTp/N3GeS2GB72FbpjI7p3AqwpQHB/kvN/wDxuCexv/wrreBWrRW6RtDBCRq/N2+eSuWJ7mVXrnJ7o3J9db9KwCgv+BMXaQ8UvIgzEhVe3VFz+quqInHrJrc4RwloSxa8uLjUBgTNEQvjldCLufTmqvtRZ2UbNe3FnJdtyuWI1hNwAo1MdKYKxls4LEgHAGax9zK30cMhAlSRSZGXQ5kREZ2IiVjudI7p8iCKAXkoMN06EKhaOBSNlWNcKxHhpy71N2udWs1RDjnvFAjY30u65Az4FVPrwDXR0qStNVIZdv8AiX2NcEnhqyq725bapt99NdiCG0jRQqooAXSNh8T5OfEfjWFjw2CHVyYIotRy3LRE1HzbSBk+utqlRm7bbuxWiP7dF/An/wBcNb1aI/t0X8Cf/XDQwXlKUrBkUpSgFVPa3Pwfd46+9p8evltVtUF9biSJ4z0dGX6wI/3oCgjuFcHGxBwynqh+SR/wEYIyCDUb1FAqzQxSkEM0aHUCVYZAbGR4ZPxTt5io2WZejLIP73cb1llBB9QUV88lFXsW1N6EjVgaha6I+NE6+kAOPoCEn2gVgb+LxkVT5N3D7GwaZJdCdNEzVG1ZqwIyCCPMb1i1bRJERNXMcY4FPJdxzxTCNBpMi5YElTu2BsxK4U5xso6jaunaomruoVZU3eIlBTVmRtUTVK1RNUkSdET1C1TvWnJdRjbmLny1DPsroirkiaW58aoXo1wPBXP+Ej7WwPtqFy58Avr7x9gwPtqaKJYyXIhnIAJJwPOu29yk5guDjA98e38zDufs+yuGkhHUksfTjA9QG309a9F9zSDFmz/OTSN9XEP/ANVWOEXvfQ4uLP8AwK/X7M6yqbj/AOktf45/oy1c1R9pplRrZ2OFWY5OCcDlSjw9JFWB5s3qVWfD1t8791/wp8PW3zv3X/CsmCzpVZ8PW3zv3X/Cnw9bfO/df8KAs6VWfD1t8791/wAKfD1t8791/wAKAivJb9J2McUMsBjXQpkaKRZRnOo6GBQ930jHSouxvBHtLYxyMrSSSyyyaM6FeRtRVM76RsMkDPXAra+Hrb537r/hT4etvnfuv+FAWdKrPh62+d+6/wCFPh62+d+6/wCFAWdKrPh62+d+6/4U+Hrb537r/hQFnWiP7dF/An/1w1F8PW3zv3X/AArCyvY5b2MxtqCwzZOGGCWix1A8jQHSUpSsGRSlKAUpSgOVt00NLF8iV8fuOeauPQA4X/AaPW12gi0TJP8AquBFIfI5JiY+jUzp6TKvlWq9eJ4pQdHEy6PVfX1LPDSzRImrA1m1YGq860astlE27RIT5lVNRGyj8EA/dyv8sVuNUbVPCcupskjTazXzf/Nl/wDao2tF83/zJf8A2rcaomrqhKXU3UUajWi+b/5kv/tUbWieIJ9bM38zW21RNXRGT6kiiuhqNZxdeUn1VoRjYbVM9QtUybe5LFJbELVC9TNUL1LEniaVy+FLdcAnbc/R6a9f7P2BgtYYTjUkahiOhfGWP0sWP015x2X4bz7yNSO5GRLJ6lOUX6XAOPEI9er1b4OFo5upScXrZpqmuXmxSlK6ynFKUoBSlKAUpSgFKUoBSlKAUpSgFKUoBSlKAUpSgFKUoCG8tVljaJxlXUg74OD5Ebg+RHSuUiLqzQyH85HjUemtTnTIB5MAfQGDLvprsaq+OcLMoDxkCZM6CfisDjMb430tgb+BAODjBruJYL+ppafEtvx9SahV9nLsUjVgawhn1A7FWU6XRtmRuulgPQQQRkEEEEgg1ma8ZKLi3GSs0XEWmrowao2qRqjat4G6I2qJqlaomrqgbojaomqVqiauiJIiJ6hapnqFqniSxIWrXmbAzv6gMkk7AADckkgAeJNTysACSQABkk7AAeJPlXUdjezzFhdzKRjeGNhgj/yuD0bHxV8AcncgL2Yei6krciPEYmNCF3vyRc9kOCm2g74HNkOqTxwcYCA+SjbyJ1Hxq8pSrtJJWR5iUnKTk92KUpWTUUpSgKbiHF5Y3dRApChDkyFSdbmNdgrDdgfHp1xVorsE1MveAJKqdW/kCQufpxWpccJVy51uGZ42yNOVMeCoXIIxnJwQdya3WjBUqRkEYIO+RjBB86lm4WVl8/D1IIKrmeZ6ctur7dLFTb8bLAnlhsfrRyo8Y/ffbRjqcj1Zqzu4tSFdTLnG6HDYBBwD4Zxj6awl4fCzh2iQsMYYqM7bjf0Hp5VJdQa0K62Tp3lOGGCDtnI8OhG4zSUoXTirCMaii1N3KzgUhMk41OAGXEchZnTu9SWJ7rHcAEjb1gZ5cXqgyMVaGQ6NgoIeIDAHU4J3Oep6VMvDANTc2TW7IWfKhiEOQuwAC9RjG+TX1+HZnE3NkBAKhRy9OkkEj4udyo8c1u5xcm+32/JGqc1BK2zvv3v5fToVN7xpPfMZ56rGkjqy6gNREchLMOukMFUeZz/drflLi8jHMYq0cx0bBRpMWNh1O53OfRity6sw7xvrYctiwA04JIK97IJ6FhtjrUc3DtUyzc2QFQQFHL04OnI3XO+kePsrOeDtbTRrz7GPZVFe+vvJ9Ol+fgVc/EvzsjuJeTC6rlCFUMApLyYYMwywGkAjAJIOa6Gq6fg6MX77hJGDPGNOlyABvtqGQq5wRnHrzY1pUlFpZf3b1JKMJxcs37q/C1vEUpSoToFKUoBSlKAUpSgFKUoCq4xwYTHmI3LmAwHxkMu50SLtqXJJG4IycEZOedaRlflSpy5PAZyr46mN9g49jAYyBmu3qG8tI5UKSIrqcbMMjI3B9BB3B8Kr8bw6niddpdfz1J6OIlT+RyDVG1Wd12clTeCXUvzcxJx02WYZbHX4wcnzFVVwJE/SQSp6dPMX16o9QUfvYrztXhuIovWN11WpZU8TTlzt8zFqiasYryJ/iSo37rKd/orNhUUU1ozri7kTVE1ZTyqoyzBR6SB/Oo4HMmOUjy56GNSy/XHcH0sK66cJS+FXNnOMfidjB6gkbcKASzHCqoJZj5Ko3P8AsNztV/Z9lrmTeRlgXyGJJfV8hD6cuPRXT8J4LBbg8tO8R3pGOp28cFjvjOe6MAZ2AqzoYCb1novE5KvEYRVoavwKHs92TOVmugNQIKQ5BVCNw0hGzuNsAd1Tv3iAw6+lKtoQjBWiVFSrKpLNJ6ilKVuRilKUApSlAKUpQClKUApSlAKUpQClKopZrv8AP4ByEl0DSuAwxy9J/WJGdjnoM6fi1lK5huxe0rkkvOIiXdHMQMO+hNZUueYWC9G042GfR5DBbrigcEpqQyLsEQMqLy2ckk4OocxR4gk9dq39l3Rrn7HYUrlefxFdYwzjkTFGKx5M4YiMEAAY0gH6ajafiZkwmoIDGcyRx5Zcd4DSdmOxJ6A528A9n3RnN2OupSlRmwpSlAKUpQClKUApSlAQXNnFJtJEj/vKG/nWgezNh+w23+TF+FfaUBsWvCLaP9HbxJ+7Gi/yFbtKUApSlAKUpQClKUApSlAKUpQClKUApSlAKUpQClKUApSlAKUpQClKUApSlAf/2Q==;" vertex="1" parent="7">
                    <mxGeometry x="420" y="140.2" width="330" height="184.8" as="geometry"/>
                </mxCell>
            </root>
        </mxGraphModel>
    </diagram>
</mxfile>